<?xml version="1.0" encoding="iso-8859-1"?>
<!-- Generator: Adobe Illustrator 19.0.0, SVG Export Plug-In . SVG Version: 6.00 Build 0)  -->
<svg version="1.1" id="Capa_1" xmlns="http://www.w3.org/2000/svg" xmlns:xlink="http://www.w3.org/1999/xlink" x="0px" y="0px"
	 viewBox="0 0 512 512" style="enable-background:new 0 0 512 512;" xml:space="preserve">
<g>
	<g>
		<path d="M45,92c-24.901,0-45,20.1-45,45v300c0,24.898,20.099,45,45,45h15V92H45z"/>
	</g>
</g>
<g>
	<g>
		<path d="M437,0H227c-8.401,0-15,6.599-15,15v47h240V15C452,6.599,445.401,0,437,0z"/>
	</g>
</g>
<g>
	<g>
		<rect x="272" y="182" width="180" height="30"/>
	</g>
</g>
<g>
	<g>
		<path d="M467,92H212v390h255c24.9,0,45-20.102,45-45V137C512,112.1,491.9,92,467,92z M287,422h-30c-19.773,0-19.854-30,0-30h30
			C306.773,392,306.854,422,287,422z M287,362h-30c-19.773,0-19.854-30,0-30h30C306.773,332,306.854,362,287,362z M287,302h-30
			c-19.773,0-19.854-30,0-30h30C306.773,272,306.854,302,287,302z M377,422h-30c-19.773,0-19.854-30,0-30h30
			C396.773,392,396.854,422,377,422z M377,362h-30c-19.773,0-19.854-30,0-30h30C396.773,332,396.854,362,377,362z M377,302h-30
			c-19.773,0-19.854-30,0-30h30C396.773,272,396.854,302,377,302z M467,422h-30c-19.773,0-19.854-30,0-30h30
			C486.773,392,486.854,422,467,422z M467,362h-30c-19.773,0-19.854-30,0-30h30C486.773,332,486.854,362,467,362z M467,302h-30
			c-19.773,0-19.854-30,0-30h30C486.773,272,486.854,302,467,302z M482,227c0,8.291-6.709,15-15,15H257c-8.291,0-15-6.709-15-15v-60
			c0-8.291,6.709-15,15-15h210c8.291,0,15,6.709,15,15V227z"/>
	</g>
</g>
<g>
	<g>
		<path d="M152,62h-32c-16.569,0-30,13.432-30,30v390c0,16.568,13.431,30,30,30h32c16.569,0,30-13.432,30-30V92
			C182,75.432,168.569,62,152,62z"/>
	</g>
</g>
<g>
</g>
<g>
</g>
<g>
</g>
<g>
</g>
<g>
</g>
<g>
</g>
<g>
</g>
<g>
</g>
<g>
</g>
<g>
</g>
<g>
</g>
<g>
</g>
<g>
</g>
<g>
</g>
<g>
</g>
</svg>
